<svg preserveAspectRatio="none" width="100%" height="100%" overflow="visible" style="display: block;" viewBox="0 0 38.6723 39.8635" fill="none" xmlns="http://www.w3.org/2000/svg">
<g id="dolphin-full-logo">
<path id="Path" d="M12.803 8.23611C13.2137 7.02836 13.4865 6.22586 13.7268 5.50757C11.4374 6.71618 9.39001 8.4617 7.80486 10.5569C6.17137 12.7157 5.05646 15.2178 4.57989 17.7916C4.92087 17.85 5.2769 17.9407 5.64483 18.065C6.44414 18.3347 7.44328 18.6124 8.60655 18.8171C8.86982 16.9151 9.6834 15.2138 10.9212 13.7869C11.7117 11.4494 12.3977 9.42704 12.803 8.23611Z" fill="var(--fill-0, #6AD3FF)"/>
<path id="Path_2" d="M21.332 5.76095C21.0997 5.47605 20.8443 4.97375 20.6239 4.70082C18.8667 2.53097 17.1016 1.24698 15.8399 1.17797C14.2223 1.08967 7.95711 9.22471 5.54492 14.4384C5.23726 15.1029 4.79796 16.5924 4.57989 17.7111L8.62876 18.7407L12.749 17.5722L13.4689 11.7629C15.518 10.4637 18.0492 9.71018 20.7643 9.71018C21.1322 9.71018 21.5033 9.64354 21.8768 9.67157C22.4168 9.71255 22.9583 9.70371 23.488 9.80324C23.1915 8.30175 22.2122 6.838 21.332 5.76095Z" fill="var(--fill-0, #0A0F14)"/>
<path id="Path_3" d="M1.54828 21.1642C1.6926 20.82 2.0193 20.5791 2.52044 20.4483C3.43236 20.2099 4.76691 20.868 6.61451 21.7781C7.79444 22.3599 9.13296 23.0187 10.6832 23.6046C12.672 24.3564 14.3348 24.7811 15.7653 24.903C17.1648 25.0218 18.3559 24.8516 19.4059 24.3822L19.4162 24.3773L19.4208 24.3878C19.4312 24.4095 20.4493 26.5818 22.3905 27.6356C22.9535 27.9413 23.6687 28.6442 23.8773 30.2541C23.9908 31.1304 23.9035 32.0622 23.886 32.1993C24.2064 31.9137 25.001 31.4674 25.334 31.1737C25.8827 30.6898 26.4498 30.1891 27.0174 29.6762C28.6826 28.1732 29.7492 26.2841 30.1012 24.212C30.4216 22.3278 30.1267 20.3761 29.2695 18.7173C27.5979 15.4825 25.8018 12.4746 23.9732 9.83603C23.4372 9.73488 22.4222 9.66198 21.8751 9.621C15.2276 9.1186 9.4113 13.1633 8.62864 18.8264C10.2336 19.1082 12.1478 19.2502 14.2753 19.0407L14.2778 19.064C10.592 19.4267 7.54467 18.7358 5.63759 18.0922C3.61394 17.4093 1.95745 17.7263 1.09312 18.9621C0.714082 19.5038 0.584828 20.2019 0.72994 20.9266C0.862365 21.5887 1.20968 22.1978 1.68546 22.6055C1.44123 22.0027 1.39524 21.5277 1.54828 21.1642Z" fill="url(#paint0_radial_1452_160)"/>
<path id="Path_4" d="M9.00653 28.6512C7.63708 27.9039 6.23591 27.0582 5.05757 26.2026C5.59519 27.9497 6.40165 29.594 7.45312 31.0915C8.49348 32.5713 9.74954 33.8738 11.1872 34.962C12.4219 35.897 13.9387 36.7259 15.3645 37.2924C15.6285 34.8768 15.5113 33.5312 14.9957 32.5321C14.4739 31.5208 13.4971 30.7874 11.5124 29.9167C10.7162 29.5667 9.86372 29.1174 9.00653 28.6512Z" fill="var(--fill-0, #0A0F14)"/>
<path id="Path_5" d="M23.8574 32.0593H23.8551C23.8567 32.0513 23.9732 31.2119 23.8487 30.2537C23.641 28.6535 22.9321 27.9569 22.3738 27.6536C20.4953 26.6335 19.4779 24.5703 19.3995 24.4059C18.348 24.8737 17.1569 25.0431 15.7581 24.9244C14.3252 24.8022 12.6609 24.377 10.6697 23.6251C9.11786 23.0383 7.77934 22.3787 6.59862 21.7978C4.75577 20.8902 3.42439 20.2337 2.52041 20.4696C2.02718 20.5988 1.70524 20.8347 1.5641 21.1718C1.35951 21.6598 1.51652 22.353 2.04384 23.2936C3.11433 25.2036 7.89749 28.3043 11.5206 29.8941C13.5109 30.7673 14.4909 31.5032 15.0151 32.5199C15.5337 33.5246 15.6288 34.8657 15.3633 37.2916C15.559 37.367 15.7589 37.4352 15.958 37.5034C16.8691 37.8157 17.8104 38.0492 18.7587 38.2016C19.3677 36.2194 21.3898 34.2573 23.8574 32.0593Z" fill="var(--fill-0, #F1EFED)" stroke="var(--stroke-0, #F1EFED)" stroke-width="2.95326"/>
<path id="Path_6" d="M23.3648 14.32L22.5258 18.1759L22.467 19.4431L25.1917 19.691L32.414 23.3151L30.2247 16.0188L25.6159 14.0559L24.2196 13.7068L23.3648 14.32Z" fill="var(--fill-0, #141B26)"/>
<path id="Path_7" opacity="0.2" d="M23.0449 32.7944L23.3612 32.5384C23.469 30.1197 21.589 27.4802 18.7335 29.3091C15.4895 31.3868 10.3844 29.3091 5.97076 26.8093C7.72162 27.9873 9.75953 29.119 11.5231 29.8926C13.5134 30.7657 14.4935 31.5016 15.0177 32.5182C15.5363 33.5231 15.6315 34.864 15.3658 37.29C15.5616 37.3654 15.7614 37.4336 15.9605 37.5018C16.8716 37.814 17.8129 38.0476 18.7613 38.1999C19.3036 36.4425 20.9545 34.7004 23.0449 32.7944Z" fill="var(--fill-0, #141B26)"/>
<path id="Path_8" opacity="0.72" d="M28.9602 18.7179C27.2886 15.4831 26.4418 12.4922 24.6131 9.8536C24.0771 9.75245 22.4246 9.66176 21.8766 9.62078C20.9005 9.54702 19.9426 9.57193 19.0157 9.68505C23.254 10.8744 26.146 14.0106 27.2188 17.9091C28.4273 22.2995 28.1728 26.9821 24.9581 31.0941C25.4792 30.6343 26.0152 30.2411 26.552 29.7565C28.2172 28.2532 29.4392 26.284 29.7913 24.2119C30.1124 22.3276 29.8174 20.3768 28.9602 18.7179Z" fill="var(--fill-0, #141B26)"/>
<path id="Path_9" d="M15.8399 1.45745C14.2262 1.30982 7.95711 9.23201 5.54492 14.4459C5.23726 15.1104 4.79796 16.5998 4.57989 17.7185L7.81438 19.6951" fill="var(--fill-0, #0A0F14)"/>
<path id="Path_10" d="M12.4127 19.203C13.1525 19.1163 13.545 19.235 13.9859 19.3667C14.2476 19.4445 14.8439 19.6186 15.1135 19.7405C15.9223 20.1074 16.1166 20.1082 17.0958 20.1074L22.1795 20.137C22.5055 20.1243 22.7822 19.8939 22.8584 19.5737L24.2126 13.636C24.2722 13.3865 24.1992 13.1448 24.0486 12.974C23.9892 12.9057 22.7045 11.9355 22.7045 11.9355L22.6181 11.9876L12.588 17.6501L9.58891 19.2183" fill="var(--fill-0, #141B26)"/>
<path id="Path_11" d="M22.0979 11.7223L8.5929 13.4493C8.30426 13.4854 8.06478 13.6925 7.98311 13.975L6.68185 18.3726C6.54308 18.8557 6.91261 19.3341 7.40979 19.3149L15.5329 19.1551L17.2259 19.0822L20.8545 18.9697C21.1796 18.9569 21.4571 18.7265 21.5332 18.4064L22.5626 14.0439L22.5515 14.0568L22.8955 12.6275C23.0145 12.126 22.603 11.6589 22.0979 11.7223Z" fill="var(--fill-0, #F1EFED)"/>
<path id="Path_12" d="M8.00589 14.7534L9.2215 13.6533L20.8193 12.3484L22.18 13.4711L21.0042 18.3455L15.0982 18.5123L13.7177 18.3527H11.9747L8.40714 18.5638L7.46033 18.9265L6.92191 18.6312L8.00589 14.7534Z" fill="var(--fill-0, #18202D)"/>
<path id="Path_13" d="M38.6605 20.4085C38.6541 20.2206 38.6446 20.0335 38.6319 19.8467C38.6311 19.8354 38.6304 19.8241 38.6295 19.8129C38.455 17.2538 37.7255 14.7684 36.4917 12.535C36.483 12.5197 36.4742 12.5037 36.4663 12.4885C36.3799 12.3328 36.2903 12.1787 36.1991 12.0263C36.1864 12.0046 36.1729 11.983 36.1602 11.9613C36.0722 11.8152 35.9818 11.67 35.889 11.5263C35.878 11.5086 35.8659 11.491 35.8549 11.4734C35.7891 11.3722 35.7218 11.2727 35.6535 11.1732C35.5901 11.0794 35.5251 10.9862 35.46 10.8947C35.4069 10.8194 35.353 10.7446 35.2982 10.67C35.2372 10.5866 35.1753 10.5047 35.1128 10.4221C35.0501 10.3401 34.9882 10.2575 34.924 10.1766C34.8716 10.1099 34.8178 10.0441 34.7646 9.97826C34.6885 9.88444 34.6124 9.79051 34.5346 9.69821C34.4998 9.65648 34.4633 9.61636 34.4284 9.57538C33.5895 8.60358 32.6466 7.7272 31.6166 6.96481C31.6063 6.95759 31.5968 6.95047 31.5865 6.94249C31.4508 6.84285 31.3137 6.74504 31.1748 6.6495C31.1487 6.63182 31.1233 6.61338 31.0971 6.59569C30.9702 6.5091 30.8426 6.42402 30.7133 6.34131C30.6722 6.31478 30.6309 6.28847 30.5889 6.26194C30.4715 6.18721 30.3533 6.11421 30.2345 6.04282C30.1765 6.00832 30.1186 5.97456 30.0607 5.94092C29.9544 5.87838 29.8475 5.81734 29.7388 5.75717C29.6682 5.71781 29.5961 5.68007 29.5248 5.64157C29.4423 5.59822 29.3273 5.53805 29.1829 5.46256C28.8515 5.29402 21.936 1.73816 19.3121 0.681319C17.949 0.132407 17.3496 -0.240755 16.1172 0.18296C13.9715 0.921262 6.88482 10.9229 5.54789 14.5228C5.83733 13.8704 13.6503 2.62662 15.4052 1.5625C15.7534 1.35136 16.2902 1.42922 16.9682 1.95729C17.8443 2.63859 18.8427 3.7757 20.1892 5.43927C20.4096 5.7122 20.638 5.99387 20.8704 6.27801C21.7553 7.36046 22.6426 8.54502 23.5228 9.81456C23.5386 9.8178 23.5545 9.82017 23.5703 9.82254L23.5664 9.84583C23.5585 9.84422 23.5505 9.84346 23.5417 9.84184C25.3663 12.4765 27.1578 15.4787 28.8261 18.7072C29.6857 20.3707 29.9815 22.3272 29.6602 24.2162C29.3066 26.2931 28.2377 28.187 26.5686 29.6934C26.0008 30.2054 25.4338 30.7069 24.885 31.1908C21.9812 33.7539 19.4564 35.9664 18.7666 38.2022C19.6547 38.3435 20.5706 38.4181 21.4793 38.4181C23.8003 38.4181 26.0515 37.9583 28.1712 37.0506C28.4272 36.9415 28.6795 36.826 28.9292 36.704C30.6745 35.8548 32.2541 34.7193 33.6362 33.3215C35.0175 31.9235 36.1396 30.3241 36.9785 28.5579C37.0984 28.3058 37.2124 28.0498 37.3211 27.7905C38.2171 25.6455 38.6723 23.3672 38.6723 21.0183C38.6723 20.8288 38.6692 20.6396 38.6628 20.4501C38.6612 20.4364 38.6612 20.422 38.6605 20.4085Z" fill="var(--fill-0, #18202D)"/>
<path id="Path_14" d="M8.4011 15.3789L7.41703 18.8988L7.46381 18.9244L11.1297 18.7783L21.0076 18.3433L22.1242 13.7233L21.2146 12.9739L9.6167 14.2788L8.4011 15.3789Z" fill="var(--fill-0, #6AD3FF)"/>
<path id="Path_15" d="M12.6387 19.2086C9.79106 19.1565 7.12988 18.5907 5.64226 18.0891C3.61863 17.4061 1.96214 17.7232 1.0978 18.9589C0.845642 19.3193 0.704493 19.7486 0.680704 20.2085L12.6387 19.2086Z" fill="url(#paint1_radial_1452_160)"/>
</g>
<defs>
<radialGradient id="paint0_radial_1452_160" cx="0" cy="0" r="1" gradientUnits="userSpaceOnUse" gradientTransform="translate(745.283 514.556) scale(1831.46 1831.46)">
<stop stop-color="#9ED8D5"/>
<stop offset="0.6229" stop-color="#585D6E"/>
</radialGradient>
<radialGradient id="paint1_radial_1452_160" cx="0" cy="0" r="1" gradientUnits="userSpaceOnUse" gradientTransform="translate(202.441 -293.225) scale(1831.47 1831.46)">
<stop stop-color="#9ED8D5"/>
<stop offset="0.6229" stop-color="#585D6E"/>
</radialGradient>
</defs>
</svg>
